<svg xmlns:xlink="http://www.w3.org/1999/xlink" xmlns="http://www.w3.org/2000/svg" viewBox="0 0 395.52 215.48472365924837" height="1046.0423478604291" width="1920"><g><svg viewBox="0 0 397.4975999999999 216.5621472775446" height="215.48472365924837" width="395.52"><g><rect width="397.4975999999999" height="4.479169629012422" x="0" y="121.16687887542362" fill="#777777" opacity="1" stroke-width="0px" stroke="#000000" fill-opacity="1" class="rect-r-0" data-fill-palette-color="primary" rx="1%" id="r-0" data-palette-color="#777777" stroke-opacity="0"></rect></g><g transform="matrix(1,0,0,1,0.9887999999999693,137.37162344949473)"><svg viewBox="0 0 395.52 79.19052382804986" height="79.19052382804986" width="395.52"><g id="textblocktransform"><svg viewBox="0 0 395.52 79.19052382804986" height="79.19052382804986" width="395.52" id="textblock"><g><svg viewBox="0 0 395.52 49.66864461045891" height="49.66864461045891" width="395.52"><g transform="matrix(1,0,0,1,0,0)"><svg width="395.52" viewBox="1.9000000953674316 -33.939998626708984 274.4900207519531 34.47999954223633" height="49.66864461045891" data-palette-color="#777777"><path d="M12.26 0.39L12.26 0.39Q9.33 0.39 6.98-0.93 4.64-2.25 3.27-4.64 1.9-7.03 1.9-10.21L1.9-10.21Q1.9-13.67 3.37-16.21 4.83-18.75 7.2-20.17 9.57-21.58 12.3-21.53L12.3-21.53Q16.31-21.48 18.51-18.92 20.7-16.36 20.7-11.96L20.7-11.96 20.7-10.99 5.96-10.99 5.96-13.28 16.99-13.28 16.36-12.45 16.36-13.72Q16.36-16.31 15.19-17.8 14.01-19.29 11.91-19.29L11.91-19.29Q10.6-19.29 9.42-18.51 8.25-17.72 7.52-16.16 6.79-14.6 6.79-12.26L6.79-12.26 6.79-11.52Q6.79-7.71 8.74-5.52 10.69-3.32 13.82-3.32L13.82-3.32Q15.48-3.32 16.85-3.96 18.21-4.59 19.48-6.15L19.48-6.15 20.8-4.93Q19.43-2.25 17.21-0.93 14.99 0.39 12.26 0.39ZM37.55-9.62L26.66-8.15 26.66-12.01 37.55-13.53 37.55-9.62ZM54.78 0L43.55 0 43.4-2.05 46.43-2.73Q46.53-2.98 46.58-3.91 46.63-4.83 46.65-6.4 46.67-7.96 46.67-10.06L46.67-10.06 46.67-18.55Q46.67-20.7 46.65-22.29 46.63-23.88 46.58-24.8 46.53-25.73 46.43-25.93L46.43-25.93 43.4-26.61 43.55-28.66 54.78-28.66 54.93-26.61 51.9-25.93Q51.8-25.73 51.73-24.85 51.66-23.97 51.63-22.41 51.61-20.85 51.61-18.55L51.61-18.55 51.61-10.06Q51.61-7.86 51.63-6.3 51.66-4.74 51.73-3.86 51.8-2.98 51.9-2.73L51.9-2.73 54.93-2.05 54.78 0ZM69.13 0L58.29 0 58.15-1.9 61.17-2.69Q61.22-2.93 61.27-3.54 61.32-4.15 61.35-5.18 61.37-6.2 61.37-7.76L61.37-7.76 61.42-11.52Q61.42-13.13 61.32-14.58 61.22-16.02 61.03-16.99L61.03-16.99 57.9-17.68 57.9-19.48 65.13-21.44 66.15-20.65 65.86-17.97 66.01-17.92Q67.67-19.78 69.38-20.65 71.09-21.53 73.04-21.53L73.04-21.53Q74.94-21.53 76.56-20.58 78.17-19.63 79.17-17.72 80.17-15.82 80.17-12.94L80.17-12.94 80.17-7.71Q80.17-6.01 80.24-4.57 80.31-3.13 80.41-2.69L80.41-2.69 83.44-1.9 83.34 0 72.7 0 72.55-1.9 75.38-2.69Q75.48-3.08 75.53-3.74 75.58-4.39 75.6-5.35 75.63-6.3 75.63-7.47L75.63-7.47 75.63-12.35Q75.63-14.4 74.94-15.65 74.26-16.89 73.21-17.46 72.16-18.02 70.99-18.02L70.99-18.02Q69.47-18.02 68.21-17.31 66.94-16.6 66.01-15.33L66.01-15.33 66.01-8.01Q66.01-5.96 66.08-4.54 66.15-3.13 66.25-2.69L66.25-2.69 69.28-1.9 69.13 0ZM96.52 0L85.98 0 85.83-1.9 88.61-2.69Q88.71-3.17 88.76-4.37 88.81-5.57 88.83-7.25 88.86-8.94 88.86-10.89L88.86-10.89 88.86-17.72Q88.86-19.48 88.83-21.36 88.81-23.24 88.78-24.9 88.76-26.56 88.74-27.81 88.71-29.05 88.66-29.59L88.66-29.59 85.05-30.08 84.95-31.79 92.62-33.94 93.69-33.2Q93.64-31.64 93.59-30.13 93.54-28.61 93.5-26.95 93.45-25.29 93.45-23.34 93.45-21.39 93.45-18.99L93.45-18.99 93.4-7.32Q93.4-6.05 93.45-5.1 93.5-4.15 93.54-3.54 93.59-2.93 93.59-2.69L93.59-2.69 96.62-1.9 96.52 0ZM109.46-1.95L109.32 0 102.92 0Q102.09-1.12 101.53-1.78 100.97-2.44 100.43-2.98L100.43-2.98 94.03-10.01 92.67-10.01 92.71-11.38 94.47-11.82 101.45-18.6 98.23-19.14 98.33-21.14 108.44-21.14 108.58-19.14 105.36-18.55 96.82-11.08 97.45-12.99 104.58-5.22Q105.26-4.44 106.07-3.66 106.87-2.88 107.36-2.39L107.36-2.39 109.46-1.95ZM132.02-3.76L132.02-3.76 135.19-2.98 135.19-1.22 128.16 0.54 127.28-0.1 127.33-3.27 127.18-3.32Q125.72-1.22 124.18-0.42 122.64 0.39 120.93 0.39L120.93 0.39Q117.61 0.39 115.42-1.68 113.22-3.76 113.22-7.91L113.22-7.91 113.22-12.11Q113.22-13.28 113.15-14.5 113.07-15.72 112.98-16.99L112.98-16.99 109.66-17.68 109.66-19.48 117.03-21.44 118.05-20.65Q117.96-19.14 117.88-17.31 117.81-15.48 117.81-13.53L117.81-13.53 117.81-8.59Q117.81-5.71 119.13-4.47 120.45-3.22 122.55-3.22L122.55-3.22Q123.72-3.22 124.99-3.86 126.26-4.49 127.18-6.01L127.18-6.01 127.18-11.47Q127.18-12.5 127.16-13.48 127.14-14.45 127.06-15.36 126.99-16.26 126.89-16.99L126.89-16.99 123.33-17.68 123.33-19.48 130.94-21.44 131.87-20.7Q131.82-19.48 131.8-18.41 131.77-17.33 131.75-16.21 131.73-15.09 131.73-13.67L131.73-13.67 131.73-10.06Q131.73-7.86 131.82-6.27 131.92-4.69 132.02-3.76ZM148.28 0L137.44 0 137.29-1.9 140.32-2.69Q140.37-2.93 140.41-3.54 140.46-4.15 140.49-5.18 140.51-6.2 140.51-7.76L140.51-7.76 140.56-11.52Q140.56-13.13 140.46-14.58 140.37-16.02 140.17-16.99L140.17-16.99 137.05-17.68 137.05-19.48 144.27-21.44 145.3-20.65 145-17.97 145.15-17.92Q146.81-19.78 148.52-20.65 150.23-21.53 152.18-21.53L152.18-21.53Q154.09-21.53 155.7-20.58 157.31-19.63 158.31-17.72 159.31-15.82 159.31-12.94L159.31-12.94 159.31-7.71Q159.31-6.01 159.38-4.57 159.46-3.13 159.56-2.69L159.56-2.69 162.58-1.9 162.49 0 151.84 0 151.69-1.9 154.53-2.69Q154.62-3.08 154.67-3.74 154.72-4.39 154.75-5.35 154.77-6.3 154.77-7.47L154.77-7.47 154.77-12.35Q154.77-14.4 154.09-15.65 153.4-16.89 152.35-17.46 151.3-18.02 150.13-18.02L150.13-18.02Q148.62-18.02 147.35-17.31 146.08-16.6 145.15-15.33L145.15-15.33 145.15-8.01Q145.15-5.96 145.22-4.54 145.3-3.13 145.4-2.69L145.4-2.69 148.42-1.9 148.28 0ZM172.93 0.39L172.93 0.39Q170.88 0.39 169.32-0.46 167.76-1.32 166.93-2.59 166.1-3.86 166.1-5.13L166.1-5.13Q166.1-6.79 167.15-7.89 168.2-8.98 170.64-9.77L170.64-9.77 178.16-12.21 178.16-14.45Q178.16-15.58 177.45-16.55 176.74-17.53 175.57-18.12 174.4-18.7 172.93-18.7L172.93-18.7Q171.91-18.7 171.49-18.24 171.08-17.77 170.98-16.41L170.98-16.41 170.83-14.06Q168.88-13.62 167.54-14.18 166.19-14.75 166.19-16.06L166.19-16.06Q166.19-16.89 167-17.77 167.8-18.65 169.05-19.46 170.3-20.26 171.71-20.8 173.13-21.34 174.4-21.53L174.4-21.53Q178.21-21.53 180.52-19.6 182.84-17.68 182.89-14.5L182.89-14.5 182.75-6.79Q182.75-5.71 182.82-4.86 182.89-4 183.09-3.56L183.09-3.56 186.21-2.98 186.21-1.32 183.58-0.24Q182.84 0.05 182.21 0.22 181.57 0.39 181.09 0.39L181.09 0.39Q179.43 0.39 178.89-1.37L178.89-1.37 178.25-3.42 179.08-3.32Q177.52-1.51 175.98-0.56 174.45 0.39 172.93 0.39ZM174.64-2.98L174.64-2.98Q175.62-2.98 176.5-3.42 177.38-3.86 178.16-4.74L178.16-4.74 178.16-9.77 173.37-8.59Q172.2-8.3 171.69-7.69 171.17-7.08 171.17-6.1L171.17-6.1Q171.17-4.88 172.2-3.93 173.22-2.98 174.64-2.98ZM190.65-1.32L190.65-1.32Q190.75-3.03 190.78-4.42 190.8-5.81 190.8-7.2 190.8-8.59 190.8-10.06L190.8-10.06 190.8-17.72Q190.8-19.58 190.78-21.48 190.75-23.39 190.73-25.05 190.7-26.71 190.68-27.93 190.65-29.15 190.61-29.64L190.61-29.64 186.99-30.08 186.89-31.79 194.51-33.94 195.63-33.2Q195.54-31.2 195.46-29.17 195.39-27.15 195.37-24.49 195.34-21.83 195.24-17.92L195.24-17.92 195.39-17.87Q196.51-19.43 198.32-20.48 200.13-21.53 202.23-21.53L202.23-21.53Q204.67-21.53 206.72-20.34 208.77-19.14 210.01-16.92 211.26-14.7 211.26-11.52L211.26-11.52Q211.26-8.11 209.65-5.42 208.04-2.73 205.2-1.17 202.37 0.39 198.86 0.39L198.86 0.39Q196.71 0.39 194.58-0.07 192.46-0.54 190.65-1.32ZM199.98-2.44L199.98-2.44Q202.62-2.44 204.4-4.49 206.18-6.54 206.23-10.45L206.23-10.45Q206.28-14.26 204.47-16.04 202.67-17.82 200.13-17.82L200.13-17.82Q198.76-17.82 197.51-17.24 196.27-16.65 195.34-15.48L195.34-15.48 195.34-3.91Q196.22-3.22 197.39-2.83 198.56-2.44 199.98-2.44ZM236.11-3.76L236.11-3.76 239.28-2.98 239.28-1.22 232.25 0.54 231.37-0.1 231.42-3.27 231.28-3.32Q229.81-1.22 228.27-0.42 226.74 0.39 225.03 0.39L225.03 0.39Q221.71 0.39 219.51-1.68 217.31-3.76 217.31-7.91L217.31-7.91 217.31-12.11Q217.31-13.28 217.24-14.5 217.17-15.72 217.07-16.99L217.07-16.99 213.75-17.68 213.75-19.48 221.12-21.44 222.15-20.65Q222.05-19.14 221.97-17.31 221.9-15.48 221.9-13.53L221.9-13.53 221.9-8.59Q221.9-5.71 223.22-4.47 224.54-3.22 226.64-3.22L226.64-3.22Q227.81-3.22 229.08-3.86 230.35-4.49 231.28-6.01L231.28-6.01 231.28-11.47Q231.28-12.5 231.25-13.48 231.23-14.45 231.15-15.36 231.08-16.26 230.98-16.99L230.98-16.99 227.42-17.68 227.42-19.48 235.04-21.44 235.96-20.7Q235.92-19.48 235.89-18.41 235.87-17.33 235.84-16.21 235.82-15.09 235.82-13.67L235.82-13.67 235.82-10.06Q235.82-7.86 235.92-6.27 236.01-4.69 236.11-3.76ZM252.61 0L241.38 0 241.23-1.95 244.41-2.69Q244.51-3.17 244.56-4.35 244.6-5.52 244.63-7.37 244.65-9.23 244.65-11.57L244.65-11.57 244.65-17.72Q244.65-19.48 244.63-21.34 244.6-23.19 244.58-24.88 244.56-26.56 244.53-27.81 244.51-29.05 244.46-29.59L244.46-29.59 240.84-30.08 240.75-31.79 248.51-33.94 249.58-33.2Q249.54-31.15 249.46-29.15 249.39-27.15 249.36-24.66 249.34-22.17 249.34-18.7L249.34-18.7 249.29-11.04Q249.29-7.96 249.36-5.59 249.44-3.22 249.54-2.69L249.54-2.69 252.71-1.95 252.61 0ZM263.11 0.39L263.11 0.39Q261.06 0.39 259.49-0.46 257.93-1.32 257.1-2.59 256.27-3.86 256.27-5.13L256.27-5.13Q256.27-6.79 257.32-7.89 258.37-8.98 260.81-9.77L260.81-9.77 268.33-12.21 268.33-14.45Q268.33-15.58 267.62-16.55 266.92-17.53 265.74-18.12 264.57-18.7 263.11-18.7L263.11-18.7Q262.08-18.7 261.67-18.24 261.25-17.77 261.15-16.41L261.15-16.41 261.01-14.06Q259.05-13.62 257.71-14.18 256.37-14.75 256.37-16.06L256.37-16.06Q256.37-16.89 257.17-17.77 257.98-18.65 259.23-19.46 260.47-20.26 261.89-20.8 263.3-21.34 264.57-21.53L264.57-21.53Q268.38-21.53 270.7-19.6 273.02-17.68 273.07-14.5L273.07-14.5 272.92-6.79Q272.92-5.71 272.99-4.86 273.07-4 273.26-3.56L273.26-3.56 276.39-2.98 276.39-1.32 273.75-0.24Q273.02 0.05 272.38 0.22 271.75 0.39 271.26 0.39L271.26 0.39Q269.6 0.39 269.06-1.37L269.06-1.37 268.43-3.42 269.26-3.32Q267.7-1.51 266.16-0.56 264.62 0.39 263.11 0.39ZM264.82-2.98L264.82-2.98Q265.79-2.98 266.67-3.42 267.55-3.86 268.33-4.74L268.33-4.74 268.33-9.77 263.55-8.59Q262.37-8.3 261.86-7.69 261.35-7.08 261.35-6.1L261.35-6.1Q261.35-4.88 262.37-3.93 263.4-2.98 264.82-2.98Z" opacity="1" transform="matrix(1,0,0,1,0,0)" fill="#777777" class="wordmark-text-0" data-fill-palette-color="primary" id="text-0"></path></svg></g></svg></g><g transform="matrix(1,0,0,1,29.664000000000016,61.39421955551761)"><svg viewBox="0 0 336.19199999999995 17.796304272532243" height="17.796304272532243" width="336.19199999999995"><g transform="matrix(1,0,0,1,0,0)"><svg width="336.19199999999995" viewBox="2.390000104904175 -37.9900016784668 944.4500122070312 50" height="17.796304272532243" data-palette-color="#777777"><path d="M12.01 0.49L12.01 0.49Q7.52 0.49 4.96-2.17 2.39-4.83 2.39-9.55L2.39-9.55Q2.39-14.14 4.21-18.35 6.03-22.56 9.03-24.9 12.04-27.25 15.65-27.25L15.65-27.25Q19.38-27.25 21.26-25.62 23.14-24 23.14-21.09L23.14-21.09Q23.14-16.7 19.09-14.2 15.04-11.69 7.5-11.69L7.5-11.69 6.69-11.69 6.59-9.74Q6.59-6.54 8.09-4.75 9.59-2.95 12.74-2.95L12.74-2.95Q14.28-2.95 15.91-3.39 17.53-3.83 19.95-5L19.95-5 19.95-1.44Q17.65-0.37 15.89 0.06 14.14 0.49 12.01 0.49ZM15.41-23.75L15.41-23.75Q12.89-23.75 10.68-21.46 8.47-19.17 7.3-15.09L7.3-15.09 7.59-15.09Q13.16-15.09 16.13-16.54 19.09-17.99 19.09-20.75L19.09-20.75Q19.09-22.05 18.2-22.9 17.31-23.75 15.41-23.75ZM37.72-11.45L26-11.45 26.85-15.31 38.55-15.31 37.72-11.45ZM51.51-26.76L45.8 0 41.69 0 47.41-26.76 51.51-26.76ZM48.55-33.59L48.55-33.59Q48.55-34.96 49.34-35.83 50.12-36.69 51.36-36.69L51.36-36.69Q53.51-36.69 53.51-34.5L53.51-34.5Q53.51-33.15 52.69-32.23 51.87-31.3 50.8-31.3L50.8-31.3Q49.82-31.3 49.19-31.9 48.55-32.5 48.55-33.59ZM74.89 0L70.74 0 74.36-16.89Q74.85-19.43 74.85-20.41L74.85-20.41Q74.85-21.95 73.98-22.88 73.11-23.8 71.21-23.8L71.21-23.8Q69.04-23.8 66.97-22.34 64.91-20.87 63.33-18.16 61.76-15.45 60.95-11.6L60.95-11.6 58.49 0 54.39 0 60.1-26.76 63.49-26.76 62.96-21.8 63.2-21.8Q65.54-24.78 67.73-26.01 69.91-27.25 72.26-27.25L72.26-27.25Q75.36-27.25 77.15-25.55 78.95-23.85 78.95-20.8L78.95-20.8Q78.95-18.87 78.39-16.41L78.39-16.41 74.89 0ZM89.76-13.65L89.86-13.65 102.7-26.76 107.61-26.76 96.16-15.36 103.36 0 98.79 0 93.06-12.79 89.35-9.79 87.34 0 83.19 0 91.25-37.99 95.4-37.99Q93.64-29.79 92.25-23.29 90.86-16.8 89.76-13.65L89.76-13.65ZM134.78-27.2L134.78-27.2Q139.51-27.2 141.64-22.56L141.64-22.56 141.88-22.56Q142.29-26.34 142.98-29.25L142.98-29.25 144.88-37.99 148.94-37.99 140.88 0 137.49 0 138.02-5.1 137.83-5.1Q135.36-2.05 133.21-0.78 131.06 0.49 128.77 0.49L128.77 0.49Q125.38 0.49 123.47-1.9 121.57-4.3 121.57-8.54L121.57-8.54Q121.57-13.77 123.32-18.12 125.08-22.46 128.07-24.83 131.06-27.2 134.78-27.2ZM130.14-2.91L130.14-2.91Q132.43-2.91 134.87-5.19 137.31-7.47 138.74-11.02 140.17-14.58 140.17-18.26L140.17-18.26Q140.17-20.97 138.85-22.39 137.53-23.8 135.02-23.8L135.02-23.8Q132.55-23.8 130.44-21.79 128.33-19.78 127.05-16.13 125.77-12.48 125.77-8.45L125.77-8.45Q125.77-2.91 130.14-2.91ZM159.28-26.76L153.57 0 149.47 0 155.18-26.76 159.28-26.76ZM156.33-33.59L156.33-33.59Q156.33-34.96 157.11-35.83 157.89-36.69 159.14-36.69L159.14-36.69Q161.29-36.69 161.29-34.5L161.29-34.5Q161.29-33.15 160.47-32.23 159.65-31.3 158.58-31.3L158.58-31.3Q157.6-31.3 156.96-31.9 156.33-32.5 156.33-33.59ZM178.67-7.59L178.67-7.59Q178.67-3.78 175.97-1.65 173.27 0.49 168.36 0.49L168.36 0.49Q164.24 0.49 160.92-1.2L160.92-1.2 160.92-5.05Q162.63-4.03 164.6-3.47 166.58-2.91 168.27-2.91L168.27-2.91Q171.34-2.91 172.9-4.13 174.47-5.35 174.47-7.25L174.47-7.25Q174.47-8.64 173.61-9.59 172.76-10.55 169.93-12.21L169.93-12.21Q166.75-13.99 165.43-15.7 164.12-17.41 164.12-19.75L164.12-19.75Q164.12-23.12 166.58-25.18 169.05-27.25 173.08-27.25L173.08-27.25Q177.25-27.25 181.13-25.44L181.13-25.44 179.81-22.09 178.45-22.71Q175.98-23.75 173.08-23.75L173.08-23.75Q170.81-23.75 169.51-22.69 168.22-21.63 168.22-19.95L168.22-19.95Q168.22-18.58 169.08-17.6 169.95-16.63 172.66-15.09L172.66-15.09Q175.27-13.62 176.41-12.57 177.54-11.52 178.11-10.31 178.67-9.11 178.67-7.59ZM195.44 0.49L195.44 0.49Q193.07 0.49 191.29-0.73 189.5-1.95 188.53-4.15L188.53-4.15 188.28-4.15 188.19-3.22Q188.11-2.61 187.93-1.51 187.75-0.42 185.13 12.01L185.13 12.01 181.08 12.01 189.28-26.76 192.68-26.76 192.04-21.66 192.24-21.66Q196.61-27.2 201.32-27.2L201.32-27.2Q204.67-27.2 206.59-24.82 208.52-22.44 208.52-18.14L208.52-18.14Q208.52-12.96 206.84-8.64 205.15-4.32 202.17-1.92 199.2 0.49 195.44 0.49ZM199.98-23.8L199.98-23.8Q197.63-23.8 195.2-21.48 192.78-19.17 191.35-15.65 189.92-12.13 189.92-8.45L189.92-8.45Q189.92-5.76 191.27-4.33 192.63-2.91 195.19-2.91L195.19-2.91Q197.61-2.91 199.7-4.88 201.78-6.86 203.05-10.51 204.32-14.16 204.32-18.26L204.32-18.26Q204.32-23.8 199.98-23.8ZM224.58-37.99L216.48 0 212.38 0 220.48-37.99 224.58-37.99ZM239.28-27.25L239.28-27.25Q241.53-27.25 243.28-26.04 245.04-24.83 246.02-22.56L246.02-22.56 246.29-22.56 247.92-26.76 251.02-26.76 245.33 0 242.09 0 242.72-5.1 242.53-5.1Q238.16 0.49 233.32 0.49L233.32 0.49Q229.93 0.49 228-1.93 226.07-4.35 226.07-8.54L226.07-8.54Q226.07-13.62 227.8-17.97 229.54-22.31 232.59-24.78 235.64-27.25 239.28-27.25ZM234.64-2.91L234.64-2.91Q237.01-2.91 239.35-5.16 241.7-7.42 243.16-11.05 244.63-14.67 244.63-18.31L244.63-18.31Q244.63-20.83 243.26-22.31 241.89-23.8 239.67-23.8L239.67-23.8Q237.13-23.8 234.95-21.7 232.76-19.6 231.52-16.02 230.27-12.43 230.27-8.45L230.27-8.45Q230.27-5.66 231.42-4.28 232.57-2.91 234.64-2.91ZM258.37 0.44L254.32-26.76 258.42-26.76 260.22-13.45Q260.47-11.77 260.7-8.48 260.93-5.2 260.93-3.2L260.93-3.2 261.08-3.2Q261.93-5.32 263.2-8.08 264.47-10.84 265.08-11.89L265.08-11.89 273.02-26.76 277.36-26.76 260.37 4.54Q258.1 8.74 255.88 10.38 253.66 12.01 250.53 12.01L250.53 12.01Q248.77 12.01 247.11 11.5L247.11 11.5 247.11 8.2Q248.65 8.64 250.31 8.64L250.31 8.64Q252.31 8.64 253.74 7.41 255.17 6.18 256.51 3.76L256.51 3.76 258.37 0.44ZM303.6-27.25L303.6-27.25Q305.85-27.25 307.61-26.04 309.36-24.83 310.34-22.56L310.34-22.56 310.61-22.56 312.25-26.76 315.35-26.76 309.66 0 306.41 0 307.05-5.1 306.85-5.1Q302.48 0.49 297.65 0.49L297.65 0.49Q294.25 0.49 292.32-1.93 290.39-4.35 290.39-8.54L290.39-8.54Q290.39-13.62 292.13-17.97 293.86-22.31 296.91-24.78 299.97-27.25 303.6-27.25ZM298.96-2.91L298.96-2.91Q301.33-2.91 303.68-5.16 306.02-7.42 307.48-11.05 308.95-14.67 308.95-18.31L308.95-18.31Q308.95-20.83 307.58-22.31 306.22-23.8 303.99-23.8L303.99-23.8Q301.45-23.8 299.27-21.7 297.08-19.6 295.84-16.02 294.59-12.43 294.59-8.45L294.59-8.45Q294.59-5.66 295.74-4.28 296.89-2.91 298.96-2.91ZM338.19 0L334.04 0 337.66-16.89Q338.15-19.43 338.15-20.41L338.15-20.41Q338.15-21.95 337.28-22.88 336.41-23.8 334.51-23.8L334.51-23.8Q332.34-23.8 330.27-22.34 328.21-20.87 326.63-18.16 325.06-15.45 324.25-11.6L324.25-11.6 321.79 0 317.69 0 323.4-26.76 326.79-26.76 326.26-21.8 326.5-21.8Q328.84-24.78 331.03-26.01 333.21-27.25 335.56-27.25L335.56-27.25Q338.66-27.25 340.45-25.55 342.25-23.85 342.25-20.8L342.25-20.8Q342.25-18.87 341.69-16.41L341.69-16.41 338.19 0ZM360.7-27.2L360.7-27.2Q365.44-27.2 367.56-22.56L367.56-22.56 367.81-22.56Q368.22-26.34 368.91-29.25L368.91-29.25 370.81-37.99 374.86-37.99 366.81 0 363.41 0 363.95-5.1 363.75-5.1Q361.29-2.05 359.14-0.78 356.99 0.49 354.7 0.49L354.7 0.49Q351.3 0.49 349.4-1.9 347.49-4.3 347.49-8.54L347.49-8.54Q347.49-13.77 349.25-18.12 351.01-22.46 354-24.83 356.99-27.2 360.7-27.2ZM356.06-2.91L356.06-2.91Q358.36-2.91 360.8-5.19 363.24-7.47 364.67-11.02 366.1-14.58 366.1-18.26L366.1-18.26Q366.1-20.97 364.78-22.39 363.46-23.8 360.95-23.8L360.95-23.8Q358.48-23.8 356.37-21.79 354.26-19.78 352.98-16.13 351.69-12.48 351.69-8.45L351.69-8.45Q351.69-2.91 356.06-2.91ZM405.3-27.25L405.3-27.25Q406.99-27.25 408.23-26.9L408.23-26.9 407.35-23.24Q406.06-23.56 404.79-23.56L404.79-23.56Q402.57-23.56 400.63-22.09 398.69-20.63 397.23-18.03 395.78-15.43 395.1-12.26L395.1-12.26 392.48 0 388.38 0 394.1-26.76 397.49-26.76 396.95-21.8 397.2-21.8Q398.95-24.12 400.1-25.13 401.25-26.15 402.51-26.7 403.76-27.25 405.3-27.25ZM422.34-27.25L422.34-27.25Q424.59-27.25 426.34-26.04 428.1-24.83 429.08-22.56L429.08-22.56 429.35-22.56 430.98-26.76 434.08-26.76 428.39 0 425.15 0 425.78-5.1 425.59-5.1Q421.22 0.49 416.38 0.49L416.38 0.49Q412.99 0.49 411.06-1.93 409.13-4.35 409.13-8.54L409.13-8.54Q409.13-13.62 410.87-17.97 412.6-22.31 415.65-24.78 418.7-27.25 422.34-27.25ZM417.7-2.91L417.7-2.91Q420.07-2.91 422.41-5.16 424.76-7.42 426.22-11.05 427.69-14.67 427.69-18.31L427.69-18.31Q427.69-20.83 426.32-22.31 424.95-23.8 422.73-23.8L422.73-23.8Q420.19-23.8 418.01-21.7 415.82-19.6 414.58-16.02 413.33-12.43 413.33-8.45L413.33-8.45Q413.33-5.66 414.48-4.28 415.63-2.91 417.7-2.91ZM452.93-7.59L452.93-7.59Q452.93-3.78 450.23-1.65 447.53 0.49 442.63 0.49L442.63 0.49Q438.5 0.49 435.18-1.2L435.18-1.2 435.18-5.05Q436.89-4.03 438.87-3.47 440.84-2.91 442.53-2.91L442.53-2.91Q445.6-2.91 447.17-4.13 448.73-5.35 448.73-7.25L448.73-7.25Q448.73-8.64 447.87-9.59 447.02-10.55 444.19-12.21L444.19-12.21Q441.01-13.99 439.7-15.7 438.38-17.41 438.38-19.75L438.38-19.75Q438.38-23.12 440.84-25.18 443.31-27.25 447.34-27.25L447.34-27.25Q451.51-27.25 455.39-25.44L455.39-25.44 454.08-22.09 452.71-22.71Q450.24-23.75 447.34-23.75L447.34-23.75Q445.07-23.75 443.77-22.69 442.48-21.63 442.48-19.95L442.48-19.95Q442.48-18.58 443.35-17.6 444.21-16.63 446.92-15.09L446.92-15.09Q449.53-13.62 450.67-12.57 451.81-11.52 452.37-10.31 452.93-9.11 452.93-7.59ZM469.7 0.49L469.7 0.49Q467.33 0.49 465.55-0.73 463.77-1.95 462.79-4.15L462.79-4.15 462.55-4.15 462.45-3.22Q462.37-2.61 462.19-1.51 462.01-0.42 459.4 12.01L459.4 12.01 455.34 12.01 463.55-26.76 466.94-26.76 466.3-21.66 466.5-21.66Q470.87-27.2 475.58-27.2L475.58-27.2Q478.93-27.2 480.86-24.82 482.78-22.44 482.78-18.14L482.78-18.14Q482.78-12.96 481.1-8.64 479.42-4.32 476.44-1.92 473.46 0.49 469.7 0.49ZM474.24-23.8L474.24-23.8Q471.9-23.8 469.47-21.48 467.04-19.17 465.61-15.65 464.18-12.13 464.18-8.45L464.18-8.45Q464.18-5.76 465.54-4.33 466.89-2.91 469.45-2.91L469.45-2.91Q471.87-2.91 473.96-4.88 476.05-6.86 477.32-10.51 478.59-14.16 478.59-18.26L478.59-18.26Q478.59-23.8 474.24-23.8ZM498.55 0.49L498.55 0.49Q496.19 0.49 494.39-0.76 492.6-2 491.69-4.15L491.69-4.15 491.45-4.15 489.74 0 486.69 0 494.74-37.99 498.85-37.99Q497.6-32.08 496.93-28.94 496.26-25.81 495.09-21.61L495.09-21.61 495.31-21.61Q497.58-24.49 499.79-25.84 502-27.2 504.34-27.2L504.34-27.2Q507.78-27.2 509.71-24.78 511.64-22.36 511.64-18.14L511.64-18.14Q511.64-13.04 509.97-8.7 508.29-4.37 505.3-1.94 502.31 0.49 498.55 0.49ZM503.09-23.8L503.09-23.8Q500.75-23.8 498.32-21.48 495.89-19.17 494.46-15.65 493.04-12.13 493.04-8.45L493.04-8.45Q493.04-5.76 494.39-4.33 495.75-2.91 498.31-2.91L498.31-2.91Q500.73-2.91 502.81-4.88 504.9-6.86 506.17-10.51 507.44-14.16 507.44-18.26L507.44-18.26Q507.44-23.8 503.09-23.8ZM526.11 0.49L526.11 0.49Q521.62 0.49 519.06-2.17 516.5-4.83 516.5-9.55L516.5-9.55Q516.5-14.14 518.31-18.35 520.13-22.56 523.14-24.9 526.14-27.25 529.75-27.25L529.75-27.25Q533.49-27.25 535.37-25.62 537.25-24 537.25-21.09L537.25-21.09Q537.25-16.7 533.19-14.2 529.14-11.69 521.6-11.69L521.6-11.69 520.79-11.69 520.69-9.74Q520.69-6.54 522.2-4.75 523.7-2.95 526.85-2.95L526.85-2.95Q528.38-2.95 530.01-3.39 531.63-3.83 534.05-5L534.05-5 534.05-1.44Q531.75-0.37 530 0.06 528.24 0.49 526.11 0.49ZM529.51-23.75L529.51-23.75Q526.99-23.75 524.78-21.46 522.57-19.17 521.4-15.09L521.4-15.09 521.7-15.09Q527.26-15.09 530.23-16.54 533.19-17.99 533.19-20.75L533.19-20.75Q533.19-22.05 532.3-22.9 531.41-23.75 529.51-23.75ZM557.12-27.25L557.12-27.25Q558.8-27.25 560.05-26.9L560.05-26.9 559.17-23.24Q557.87-23.56 556.61-23.56L556.61-23.56Q554.38-23.56 552.44-22.09 550.5-20.63 549.05-18.03 547.6-15.43 546.91-12.26L546.91-12.26 544.3 0 540.2 0 545.91-26.76 549.31-26.76 548.77-21.8 549.01-21.8Q550.77-24.12 551.92-25.13 553.06-26.15 554.32-26.7 555.58-27.25 557.12-27.25ZM576.92-27.25L576.92-27.25Q578.6-27.25 579.84-26.9L579.84-26.9 578.97-23.24Q577.67-23.56 576.4-23.56L576.4-23.56Q574.18-23.56 572.24-22.09 570.3-20.63 568.85-18.03 567.39-15.43 566.71-12.26L566.71-12.26 564.1 0 560 0 565.71-26.76 569.1-26.76 568.57-21.8 568.81-21.8Q570.57-24.12 571.71-25.13 572.86-26.15 574.12-26.7 575.38-27.25 576.92-27.25ZM584.8 0.44L580.75-26.76 584.85-26.76 586.65-13.45Q586.9-11.77 587.13-8.48 587.36-5.2 587.36-3.2L587.36-3.2 587.51-3.2Q588.36-5.32 589.63-8.08 590.9-10.84 591.51-11.89L591.51-11.89 599.45-26.76 603.79-26.76 586.8 4.54Q584.53 8.74 582.31 10.38 580.09 12.01 576.96 12.01L576.96 12.01Q575.2 12.01 573.54 11.5L573.54 11.5 573.54 8.2Q575.08 8.64 576.74 8.64L576.74 8.64Q578.74 8.64 580.17 7.41 581.6 6.18 582.94 3.76L582.94 3.76 584.8 0.44ZM627.74 0.49L627.74 0.49Q625.37 0.49 623.59-0.73 621.8-1.95 620.83-4.15L620.83-4.15 620.58-4.15 620.49-3.22Q620.41-2.61 620.23-1.51 620.05-0.42 617.43 12.01L617.43 12.01 613.38 12.01 621.59-26.76 624.98-26.76 624.34-21.66 624.54-21.66Q628.91-27.2 633.62-27.2L633.62-27.2Q636.97-27.2 638.89-24.82 640.82-22.44 640.82-18.14L640.82-18.14Q640.82-12.96 639.14-8.64 637.45-4.32 634.48-1.92 631.5 0.49 627.74 0.49ZM632.28-23.8L632.28-23.8Q629.93-23.8 627.51-21.48 625.08-19.17 623.65-15.65 622.22-12.13 622.22-8.45L622.22-8.45Q622.22-5.76 623.58-4.33 624.93-2.91 627.49-2.91L627.49-2.91Q629.91-2.91 632-4.88 634.09-6.86 635.35-10.51 636.62-14.16 636.62-18.26L636.62-18.26Q636.62-23.8 632.28-23.8ZM654.54-26.76L648.83 0 644.73 0 650.44-26.76 654.54-26.76ZM651.59-33.59L651.59-33.59Q651.59-34.96 652.37-35.83 653.15-36.69 654.4-36.69L654.4-36.69Q656.54-36.69 656.54-34.5L656.54-34.5Q656.54-33.15 655.73-32.23 654.91-31.3 653.83-31.3L653.83-31.3Q652.86-31.3 652.22-31.9 651.59-32.5 651.59-33.59ZM682.03-11.45L670.31-11.45 671.16-15.31 682.86-15.31 682.03-11.45ZM718.64 0L714.54 0 718.15-16.89Q718.59-19.19 718.59-20.19L718.59-20.19Q718.59-21.9 717.84-22.85 717.08-23.8 715.25-23.8L715.25-23.8Q713.2-23.8 711.26-22.34 709.32-20.87 707.84-18.15 706.36-15.43 705.56-11.6L705.56-11.6 703.09 0 698.99 0 704.7-26.76 708.1-26.76 707.56-21.8 707.8-21.8Q709.93-24.71 712.04-25.98 714.15-27.25 716.4-27.25L716.4-27.25Q719.16-27.25 720.65-25.66 722.13-24.07 722.4-21.24L722.4-21.24 722.6-21.24Q724.7-24.29 727.07-25.77 729.43-27.25 731.85-27.25L731.85-27.25Q734.95-27.25 736.65-25.59 738.35-23.93 738.35-20.75L738.35-20.75Q738.35-19.09 737.81-16.41L737.81-16.41 734.29 0 730.14 0 733.76-16.89Q734.24-19.43 734.24-20.46L734.24-20.46Q734.24-21.97 733.4-22.89 732.56-23.8 730.75-23.8L730.75-23.8Q728.77-23.8 726.85-22.39 724.92-20.97 723.46-18.37 722.01-15.77 721.26-12.21L721.26-12.21 718.64 0ZM756.75-27.25L756.75-27.25Q759-27.25 760.75-26.04 762.51-24.83 763.49-22.56L763.49-22.56 763.76-22.56 765.39-26.76 768.49-26.76 762.81 0 759.56 0 760.19-5.1 760-5.1Q755.63 0.49 750.79 0.49L750.79 0.49Q747.4 0.49 745.47-1.93 743.54-4.35 743.54-8.54L743.54-8.54Q743.54-13.62 745.28-17.97 747.01-22.31 750.06-24.78 753.11-27.25 756.75-27.25ZM752.11-2.91L752.11-2.91Q754.48-2.91 756.82-5.16 759.17-7.42 760.63-11.05 762.1-14.67 762.1-18.31L762.1-18.31Q762.1-20.83 760.73-22.31 759.36-23.8 757.14-23.8L757.14-23.8Q754.6-23.8 752.42-21.7 750.23-19.6 748.99-16.02 747.74-12.43 747.74-8.45L747.74-8.45Q747.74-5.66 748.89-4.28 750.04-2.91 752.11-2.91ZM785-27.2L785-27.2Q789.73-27.2 791.86-22.56L791.86-22.56 792.1-22.56Q792.52-26.34 793.2-29.25L793.2-29.25 795.1-37.99 799.16-37.99 791.1 0 787.71 0 788.24-5.1 788.05-5.1Q785.58-2.05 783.43-0.78 781.28 0.49 778.99 0.49L778.99 0.49Q775.6 0.49 773.69-1.9 771.79-4.3 771.79-8.54L771.79-8.54Q771.79-13.77 773.55-18.12 775.3-22.46 778.29-24.83 781.28-27.2 785-27.2ZM780.36-2.91L780.36-2.91Q782.65-2.91 785.09-5.19 787.53-7.47 788.96-11.02 790.39-14.58 790.39-18.26L790.39-18.26Q790.39-20.97 789.07-22.39 787.75-23.8 785.24-23.8L785.24-23.8Q782.77-23.8 780.66-21.79 778.55-19.78 777.27-16.13 775.99-12.48 775.99-8.45L775.99-8.45Q775.99-2.91 780.36-2.91ZM810.26 0.49L810.26 0.49Q805.77 0.49 803.21-2.17 800.64-4.83 800.64-9.55L800.64-9.55Q800.64-14.14 802.46-18.35 804.28-22.56 807.28-24.9 810.29-27.25 813.9-27.25L813.9-27.25Q817.63-27.25 819.51-25.62 821.39-24 821.39-21.09L821.39-21.09Q821.39-16.7 817.34-14.2 813.29-11.69 805.74-11.69L805.74-11.69 804.94-11.69 804.84-9.74Q804.84-6.54 806.34-4.75 807.84-2.95 810.99-2.95L810.99-2.95Q812.53-2.95 814.16-3.39 815.78-3.83 818.2-5L818.2-5 818.2-1.44Q815.9-0.37 814.14 0.06 812.39 0.49 810.26 0.49ZM813.66-23.75L813.66-23.75Q811.14-23.75 808.93-21.46 806.72-19.17 805.55-15.09L805.55-15.09 805.84-15.09Q811.41-15.09 814.38-16.54 817.34-17.99 817.34-20.75L817.34-20.75Q817.34-22.05 816.45-22.9 815.56-23.75 813.66-23.75ZM847.9 0.49L847.9 0.49Q843.41 0.49 840.85-2.17 838.28-4.83 838.28-9.55L838.28-9.55Q838.28-14.14 840.1-18.35 841.92-22.56 844.92-24.9 847.93-27.25 851.54-27.25L851.54-27.25Q855.28-27.25 857.16-25.62 859.04-24 859.04-21.09L859.04-21.09Q859.04-16.7 854.98-14.2 850.93-11.69 843.39-11.69L843.39-11.69 842.58-11.69 842.48-9.74Q842.48-6.54 843.98-4.75 845.49-2.95 848.64-2.95L848.64-2.95Q850.17-2.95 851.8-3.39 853.42-3.83 855.84-5L855.84-5 855.84-1.44Q853.54-0.37 851.78 0.06 850.03 0.49 847.9 0.49ZM851.3-23.75L851.3-23.75Q848.78-23.75 846.57-21.46 844.36-19.17 843.19-15.09L843.19-15.09 843.48-15.09Q849.05-15.09 852.02-16.54 854.98-17.99 854.98-20.75L854.98-20.75Q854.98-22.05 854.09-22.9 853.2-23.75 851.3-23.75ZM876.15-27.25L876.15-27.25Q878.39-27.25 880.15-26.04 881.91-24.83 882.89-22.56L882.89-22.56 883.15-22.56 884.79-26.76 887.89-26.76 882.2 0 878.96 0 879.59-5.1 879.39-5.1Q875.02 0.49 870.19 0.49L870.19 0.49Q866.8 0.49 864.87-1.93 862.94-4.35 862.94-8.54L862.94-8.54Q862.94-13.62 864.67-17.97 866.41-22.31 869.46-24.78 872.51-27.25 876.15-27.25ZM871.51-2.91L871.51-2.91Q873.88-2.91 876.22-5.16 878.56-7.42 880.03-11.05 881.49-14.67 881.49-18.31L881.49-18.31Q881.49-20.83 880.13-22.31 878.76-23.8 876.54-23.8L876.54-23.8Q874-23.8 871.81-21.7 869.63-19.6 868.38-16.02 867.14-12.43 867.14-8.45L867.14-8.45Q867.14-5.66 868.29-4.28 869.43-2.91 871.51-2.91ZM906.74-7.59L906.74-7.59Q906.74-3.78 904.04-1.65 901.34 0.49 896.43 0.49L896.43 0.49Q892.31 0.49 888.99-1.2L888.99-1.2 888.99-5.05Q890.7-4.03 892.67-3.47 894.65-2.91 896.34-2.91L896.34-2.91Q899.41-2.91 900.97-4.13 902.54-5.35 902.54-7.25L902.54-7.25Q902.54-8.64 901.68-9.59 900.83-10.55 898-12.21L898-12.21Q894.82-13.99 893.5-15.7 892.19-17.41 892.19-19.75L892.19-19.75Q892.19-23.12 894.65-25.18 897.12-27.25 901.15-27.25L901.15-27.25Q905.32-27.25 909.2-25.44L909.2-25.44 907.88-22.09 906.52-22.71Q904.05-23.75 901.15-23.75L901.15-23.75Q898.87-23.75 897.58-22.69 896.29-21.63 896.29-19.95L896.29-19.95Q896.29-18.58 897.15-17.6 898.02-16.63 900.73-15.09L900.73-15.09Q903.34-13.62 904.48-12.57 905.61-11.52 906.17-10.31 906.74-9.11 906.74-7.59ZM916.65 0.44L912.59-26.76 916.69-26.76 918.5-13.45Q918.75-11.77 918.98-8.48 919.21-5.2 919.21-3.2L919.21-3.2 919.36-3.2Q920.21-5.32 921.48-8.08 922.75-10.84 923.36-11.89L923.36-11.89 931.29-26.76 935.64-26.76 918.65 4.54Q916.38 8.74 914.16 10.38 911.93 12.01 908.81 12.01L908.81 12.01Q907.05 12.01 905.39 11.5L905.39 11.5 905.39 8.2Q906.93 8.64 908.59 8.64L908.59 8.64Q910.59 8.64 912.02 7.41 913.45 6.18 914.79 3.76L914.79 3.76 916.65 0.44ZM941.79-35.69L946.84-35.69 940.15-9.84 937.49-9.84Q938.69-17.33 941.79-35.69L941.79-35.69ZM934.34-1.9L934.34-1.9Q934.34-3.76 935.31-4.83 936.27-5.91 937.93-5.91L937.93-5.91Q939.03-5.91 939.71-5.24 940.4-4.57 940.4-3.25L940.4-3.25Q940.4-1.59 939.45-0.44 938.49 0.71 936.88 0.71L936.88 0.71Q935.69 0.71 935.01 0.02 934.34-0.66 934.34-1.9Z" opacity="1" transform="matrix(1,0,0,1,0,0)" fill="#777777" class="slogan-text-1" data-fill-palette-color="secondary" id="text-1"></path></svg></g></svg></g></svg></g></svg></g><g transform="matrix(1,0,0,1,153.09878658497934,0)"><svg viewBox="0 0 91.30002683004123 109.44130393036492" height="109.44130393036492" width="91.30002683004123"><g><svg xmlns="http://www.w3.org/2000/svg" xmlns:xlink="http://www.w3.org/1999/xlink" version="1.1" x="0" y="0" viewBox="0 0 82.5 98.89271545410156" style="enable-background:new 0 0 82.5 99;" xml:space="preserve" width="91.30002683004123" height="109.44130393036492" class="icon-icon-0" data-fill-palette-color="accent" id="icon-0"><polygon points="42.5,82.5 32,72 29.2,74.7 25.6,71.1 32,64.7 42.5,75.2 75.2,42.5 40,7.3 7.3,40 17.9,50.6 11.5,57 7.8,53.3   10.5,50.6 0,40 40,0 82.5,42.5 " fill="#3D9970" data-fill-palette-color="accent"></polygon><path d="M71.3 42.8L44.1 15.6 29.7 49.3l0 0L23.5 64c-1.4 3.4-2.4 6.9-2.9 10.5l-2.5 18.8c-0.2 1.4 0.3 2.8 1.2 3.8l0.3 0.3c2 2.1 5.4 2 7.2-0.4 0.7-1 1.1-2.2 0.9-3.5l-3.4-24.2 7.7-7.7L42.1 72l5.2-5.2 0 0L71.3 42.8z" fill="#3D9970" data-fill-palette-color="accent"></path></svg></g></svg></g><g></g></svg></g><defs></defs></svg>